<svg width="72" height="72" viewBox="0 0 72 72" fill="none" xmlns="http://www.w3.org/2000/svg">
    <path fill-rule="evenodd" clip-rule="evenodd"
        d="M4 36C4 18.336 18.336 4 36 4C53.664 4 68 18.336 68 36C68 53.664 53.664 68 36 68C18.336 68 4 53.664 4 36Z"
        fill="#E5EEF8" />
    <path
        d="M32.3007 42.0858C32.3007 42.3048 32.4782 42.4824 32.6973 42.4824H36.8643C37.0833 42.4824 37.2608 42.3048 37.2608 42.0858C37.2906 38.8522 38.3184 37.3727 40.7463 35.8475C43.487 34.1697 45.2 31.8818 45.2 28.3889C45.2 23.2336 41.2825 20 35.5926 20C31.2654 20 27.6156 22.0385 26.4145 26.0458C25.9823 27.4881 27.2416 28.755 28.7473 28.755C30.1775 28.755 31.2478 27.5341 32.029 26.3362C32.8285 25.1103 34.1795 24.5148 35.5628 24.5148C37.8417 24.5148 39.6739 26.0705 39.6739 28.4652C39.6739 30.6006 38.2886 32.0648 36.4863 33.224C33.8498 34.9018 32.3305 36.5948 32.3007 42.0858ZM34.9074 52C36.665 52 38.1694 50.5052 38.1843 48.6444C38.1694 46.8141 36.665 45.3193 34.9074 45.3193C33.0901 45.3193 31.6155 46.8141 31.6304 48.6444C31.6155 50.5052 33.0901 52 34.9074 52Z"
        fill="#003D80" />
</svg>
