<svg width="42" height="42" viewBox="0 0 42 42" fill="none" xmlns="http://www.w3.org/2000/svg">
    <path
        d="M21 3.5C11.34 3.5 3.5 11.34 3.5 21C3.5 30.66 11.34 38.5 21 38.5C30.66 38.5 38.5 30.66 38.5 21C38.5 11.34 30.66 3.5 21 3.5ZM16.2575 28.5075L9.975 22.225C9.2925 21.5425 9.2925 20.44 9.975 19.7575C10.6575 19.075 11.76 19.075 12.4425 19.7575L17.5 24.7975L29.54 12.7575C30.2225 12.075 31.325 12.075 32.0075 12.7575C32.69 13.44 32.69 14.5425 32.0075 15.225L18.725 28.5075C18.06 29.19 16.94 29.19 16.2575 28.5075Z"
        fill="white" />
</svg>
